<svg width="80" height="80" viewBox="0 0 80 80" fill="none" xmlns="http://www.w3.org/2000/svg">
<circle cx="39.9998" cy="39.9998" r="36.8" transform="rotate(-180 39.9998 39.9998)" fill="white"/>
<path fill-rule="evenodd" clip-rule="evenodd" d="M62.7468 53.7548C60.1341 53.9271 57.4492 53.6809 54.7793 52.9655C41.6916 49.4587 33.9248 36.0061 37.4317 22.9184C38.147 20.2486 39.2763 17.8002 40.7319 15.6238C30.537 16.2964 21.4437 23.3428 18.6522 33.7607C15.1454 46.8484 22.9122 60.301 35.9999 63.8078C46.4178 66.5993 57.0669 62.2475 62.7468 53.7548Z" fill="#161616"/>
<path d="M62.7468 53.7548L63.1624 54.0327C63.2683 53.8744 63.275 53.6697 63.1798 53.5048C63.0846 53.3398 62.9039 53.2433 62.7139 53.2558L62.7468 53.7548ZM40.7319 15.6238L41.1475 15.9018C41.2534 15.7435 41.2601 15.5388 41.1649 15.3738C41.0697 15.2089 40.889 15.1124 40.699 15.1249L40.7319 15.6238ZM54.6499 53.4485C57.3733 54.1782 60.1132 54.4296 62.7797 54.2537L62.7139 53.2558C60.1551 53.4247 57.525 53.1836 54.9088 52.4826L54.6499 53.4485ZM36.9487 22.789C33.3704 36.1435 41.2955 49.8702 54.6499 53.4485L54.9088 52.4826C42.0878 49.0472 34.4793 35.8688 37.9146 23.0478L36.9487 22.789ZM40.3163 15.3458C38.8306 17.5672 37.6784 20.0657 36.9487 22.789L37.9146 23.0478C38.6156 20.4316 39.7219 18.0333 41.1475 15.9018L40.3163 15.3458ZM40.699 15.1249C30.297 15.8112 21.0178 23.0004 18.1693 33.6313L19.1352 33.8902C21.8696 23.6853 30.7771 16.7816 40.7648 16.1227L40.699 15.1249ZM18.1693 33.6313C14.591 46.9858 22.5161 60.7125 35.8705 64.2908L36.1293 63.3249C23.3084 59.8895 15.6998 46.7111 19.1352 33.8902L18.1693 33.6313ZM35.8705 64.2908C46.5015 67.1393 57.3671 62.698 63.1624 54.0327L62.3312 53.4768C56.7667 61.7969 46.3342 66.0592 36.1293 63.3249L35.8705 64.2908Z" fill="#161616"/>
<path d="M51.9718 16.3417C52.0773 16.1792 52.3291 16.2466 52.3392 16.4401L52.6036 21.4847C52.6081 21.5712 52.6679 21.645 52.7515 21.6674L57.6309 22.9748C57.8181 23.025 57.8317 23.2853 57.6508 23.3547L52.9348 25.165C52.854 25.1961 52.8023 25.2757 52.8068 25.3622L53.0712 30.4068C53.0813 30.6003 52.8379 30.6937 52.716 30.5431L49.537 26.6174C49.4825 26.55 49.3908 26.5255 49.3099 26.5565L44.5939 28.3668C44.4131 28.4362 44.249 28.2337 44.3545 28.0712L47.1058 23.8346C47.153 23.762 47.148 23.6672 47.0935 23.5998L43.9144 19.6741C43.7925 19.5235 43.9345 19.3049 44.1216 19.355L49.001 20.6625C49.0847 20.6849 49.1733 20.6509 49.2205 20.5782L51.9718 16.3417Z" fill="#161616"/>
</svg>
