<svg width="18" height="18" viewBox="0 0 18 18" fill="none" xmlns="http://www.w3.org/2000/svg">
<path fill-rule="evenodd" clip-rule="evenodd" d="M11.6393 2.84229H6.36108C4.4177 2.84229 2.84229 4.4177 2.84229 6.36108V11.6393C2.84229 13.5826 4.4177 15.1581 6.36108 15.1581H11.6393C13.5826 15.1581 15.1581 13.5826 15.1581 11.6393V6.36108C15.1581 4.4177 13.5826 2.84229 11.6393 2.84229Z" stroke="#161616" stroke-width="2" stroke-linecap="round" stroke-linejoin="round"/>
<path fill-rule="evenodd" clip-rule="evenodd" d="M8.99977 11.3682C7.69169 11.3682 6.63135 10.3078 6.63135 8.99977C6.63135 7.69169 7.69169 6.63135 8.99977 6.63135C10.3078 6.63135 11.3682 7.69169 11.3682 8.99977C11.3682 9.62787 11.1186 10.2303 10.6745 10.6745C10.2303 11.1186 9.62787 11.3682 8.99977 11.3682Z" stroke="#161616" stroke-width="2" stroke-linecap="round" stroke-linejoin="round"/>
<path d="M12.5 5C12.2239 5 12 5.22386 12 5.5C12 5.77614 12.2239 6 12.5 6C12.7761 6 13 5.77614 13 5.5C13 5.22386 12.7761 5 12.5 5Z" fill="#161616"/>
</svg>
