<svg width="167" height="40" viewBox="0 0 167 40" fill="none" xmlns="http://www.w3.org/2000/svg">
<path d="M45.2562 39.4136L21.5196 29.3624C21.0247 29.1528 20.7842 28.5893 20.9752 28.0867L23.0026 22.7529C23.2068 22.2154 23.8211 21.9602 24.3458 22.1948L46.0774 31.9085C46.4385 32.0699 46.6704 32.4292 46.6689 32.8249L46.6466 38.4961C46.6437 39.2107 45.9141 39.6921 45.2562 39.4136Z" fill="#2F20DC"/>
<path d="M15.8234 1.27302C16.7339 -0.706556 18.4524 0.0492812 20.3457 0.70914C28.9762 3.7045 37.5283 6.76185 46.0021 9.88118C46.1432 9.93406 46.2645 10.0292 46.3497 10.1536C46.4349 10.2781 46.4799 10.4259 46.4784 10.577L46.4121 19.4791C46.4104 19.5789 46.3783 19.6756 46.32 19.7561C46.2618 19.8366 46.1802 19.8969 46.0865 19.929C37.7896 22.8264 29.5274 26.1784 21.1039 28.4939C20.9729 28.5293 20.7762 28.5238 20.6779 28.4169C20.6443 28.3804 20.6214 28.3353 20.6118 28.2867C20.6022 28.2381 20.6062 28.1878 20.6235 28.1413L23.5158 20.3956C23.5497 20.3024 23.6044 20.2186 23.6756 20.1509C23.7468 20.0832 23.8325 20.0334 23.9258 20.0057C28.0823 18.778 31.9574 17.3963 36.1782 15.8966C36.4726 15.8101 38.8915 14.6969 38.8915 14.6969C38.8915 14.6969 36.7688 13.9022 36.4797 13.797C29.847 11.6975 27.1336 10.7977 21.1039 8.99808C20.8562 8.93768 20.8556 9.01128 20.6277 9.12682C20.3999 9.24236 20.2207 9.43549 20.1226 9.67123L8.52748 37.8232C8.37413 38.1985 8.1401 38.6917 7.70833 38.6645C6.93416 38.6917 4.22079 38.6917 2.41188 38.6917C0.904456 38.6917 0.301485 38.6917 0 38.3918C0 38.3918 4.26896 28.7938 4.36095 28.5912C8.85911 18.6813 12.3202 8.87939 15.8234 1.27302Z" fill="white"/>
<path d="M65.5251 38.0545C65.6105 38.8017 66.2451 39.3821 67.0153 39.3821H68.4282C69.2566 39.3821 69.9282 38.7105 69.9282 37.8821V21.2795C69.9282 20.4511 69.2566 19.7795 68.4282 19.7795H67.0153C66.1868 19.7795 65.5153 20.4511 65.5153 21.2795V34.4411C65.5153 34.7172 65.2914 34.9411 65.0153 34.9411H57.504C57.2279 34.9411 57.004 34.7172 57.004 34.4411V21.2795C57.004 20.4511 56.3325 19.7795 55.504 19.7795H54.1084C53.28 19.7795 52.6084 20.4511 52.6084 21.2795V35.4411C52.6084 35.9805 52.7066 36.4941 52.9062 36.977L52.906 36.9771L52.9107 36.9877C53.1177 37.4571 53.3918 37.8732 53.7343 38.2318L53.7408 38.2386L53.7476 38.2452C54.1033 38.5906 54.5164 38.8674 54.9829 39.0764L54.9828 39.0765L54.9937 39.0811C55.4723 39.2821 55.9772 39.3821 56.504 39.3821H62.6196C63.1222 39.3821 63.6033 39.2884 64.0587 39.0994C64.5043 38.9144 64.9017 38.6613 65.2471 38.3398L65.2477 38.3393C65.3451 38.2484 65.4376 38.1534 65.5251 38.0545ZM79.1978 20.8812C79.1314 20.9455 79.0676 21.0122 79.0063 21.0812V14.1179C79.0063 13.2895 78.3348 12.6179 77.5063 12.6179H76.1107C75.2823 12.6179 74.6107 13.2895 74.6107 14.1179V35.4411C74.6107 35.9805 74.7089 36.4941 74.9085 36.977L74.9084 36.9771L74.9131 36.9877C75.12 37.4571 75.3941 37.8732 75.7366 38.2318L75.7432 38.2386L75.7499 38.2452C76.1056 38.5906 76.5187 38.8674 76.9852 39.0764L76.9851 39.0765L76.996 39.0811C77.4746 39.2821 77.9795 39.3821 78.5063 39.3821H88.0176C88.5542 39.3821 89.0651 39.2828 89.5452 39.0811L89.5453 39.0812L89.556 39.0764C90.0241 38.8666 90.4342 38.588 90.7807 38.2386C91.1382 37.8782 91.4158 37.4581 91.6132 36.9824C91.8256 36.4985 91.9305 35.983 91.9305 35.4411V23.7205C91.9305 23.1786 91.8256 22.6631 91.6132 22.1792C91.4164 21.7049 91.1391 21.2901 90.7807 20.9404C90.4339 20.5792 90.0221 20.2991 89.5506 20.1003C89.0695 19.8856 88.5567 19.7795 88.0176 19.7795H81.9193C81.3946 19.7795 80.8956 19.8787 80.4273 20.0801C79.9656 20.2671 79.5547 20.5347 79.1978 20.8812ZM119.535 21.0941C119.443 20.3531 118.812 19.7795 118.046 19.7795H116.65C115.822 19.7795 115.15 20.4511 115.15 21.2795V37.8821C115.15 38.7105 115.822 39.3821 116.65 39.3821H118.046C118.874 39.3821 119.546 38.7105 119.546 37.8821V24.7205C119.546 24.4444 119.77 24.2205 120.046 24.2205H127.557C127.833 24.2205 128.057 24.4444 128.057 24.7205V37.8821C128.057 38.7105 128.729 39.3821 129.557 39.3821H130.97C131.799 39.3821 132.47 38.7105 132.47 37.8821V23.7205C132.47 23.1786 132.365 22.663 132.153 22.179C131.956 21.7048 131.679 21.2901 131.32 20.9404C130.974 20.5791 130.562 20.2991 130.09 20.1002C129.609 19.8856 129.096 19.7795 128.557 19.7795H122.459C121.934 19.7795 121.435 19.8787 120.967 20.0801C120.505 20.2672 120.094 20.5349 119.737 20.8815C119.737 20.8814 119.737 20.8813 119.737 20.8812L119.535 21.0941ZM79.0063 34.4411V24.7205C79.0063 24.4444 79.2302 24.2205 79.5063 24.2205H87.0176C87.2937 24.2205 87.5176 24.4444 87.5176 24.7205V34.4411C87.5176 34.7172 87.2937 34.9411 87.0176 34.9411H79.5063C79.2302 34.9411 79.0063 34.7172 79.0063 34.4411ZM101.199 37.8821V21.2795C101.199 20.4511 100.528 19.7795 99.6992 19.7795H98.2863C97.4578 19.7795 96.7863 20.4511 96.7863 21.2795V37.8821C96.7863 38.7105 97.4578 39.3821 98.2863 39.3821H99.6992C100.528 39.3821 101.199 38.7105 101.199 37.8821ZM99.8725 12.6179H98.113C97.2846 12.6179 96.613 13.2895 96.613 14.1179V15.6987C96.613 16.5271 97.2846 17.1987 98.113 17.1987H99.8725C100.701 17.1987 101.372 16.5271 101.372 15.6987V14.1179C101.372 13.2895 100.701 12.6179 99.8725 12.6179ZM110.468 37.8821V14.1179C110.468 13.2895 109.796 12.6179 108.968 12.6179H107.572C106.744 12.6179 106.072 13.2895 106.072 14.1179V37.8821C106.072 38.7105 106.744 39.3821 107.572 39.3821H108.968C109.796 39.3821 110.468 38.7105 110.468 37.8821ZM141.739 37.8821V21.2795C141.739 20.4511 141.067 19.7795 140.239 19.7795H138.826C137.998 19.7795 137.326 20.4511 137.326 21.2795V37.8821C137.326 38.7105 137.998 39.3821 138.826 39.3821H140.239C141.067 39.3821 141.739 38.7105 141.739 37.8821ZM140.412 12.6179H138.653C137.824 12.6179 137.153 13.2895 137.153 14.1179V15.6987C137.153 16.5271 137.824 17.1987 138.653 17.1987H140.412C141.241 17.1987 141.912 16.5271 141.912 15.6987V14.1179C141.912 13.2895 141.241 12.6179 140.412 12.6179ZM151.843 32.8139L158.688 38.9954C158.964 39.2443 159.322 39.3821 159.693 39.3821H161.515C162.887 39.3821 163.539 37.6921 162.522 36.7706L154.641 29.6283C154.422 29.4298 154.422 29.0857 154.641 28.8872L161.811 22.3911C162.828 21.4697 162.176 19.7795 160.804 19.7795H158.984C158.612 19.7795 158.252 19.9181 157.976 20.1683L151.843 25.7295C151.522 26.0209 151.008 25.7929 151.008 25.3591V14.1179C151.008 13.2895 150.336 12.6179 149.508 12.6179H148.112C147.284 12.6179 146.612 13.2895 146.612 14.1179V37.8821C146.612 38.7105 147.284 39.3821 148.112 39.3821H149.508C150.336 39.3821 151.008 38.7105 151.008 37.8821V33.185C151.008 32.7517 151.521 32.5235 151.843 32.8139Z" fill="white" stroke="white"/>
<path fill-rule="evenodd" clip-rule="evenodd" d="M52 20.1616C52 19.6093 52.4477 19.1616 53 19.1616H56.6132C57.1655 19.1616 57.6132 19.6093 57.6132 20.1616V33.3231C57.6132 33.8754 58.0609 34.3231 58.6132 34.3231H63.9069C64.4592 34.3231 64.9069 33.8754 64.9069 33.3231V20.1616C64.9069 19.6093 65.3546 19.1616 65.9069 19.1616H69.5374C70.0897 19.1616 70.5374 19.6093 70.5374 20.1616V39C70.5374 39.5523 70.0897 40 69.5374 40H65.3063C65.1026 40 64.9524 39.8096 64.9997 39.6115C65.0646 39.3399 64.7868 39.1496 64.5566 39.3078C64.3795 39.4295 64.2128 39.5381 64.1221 39.5758C63.5909 39.7963 63.1988 40 62.62 40H56.5044C55.8999 40 55.3157 39.8849 54.7613 39.652L54.7493 39.647L54.7374 39.6416C54.2098 39.4052 53.7367 39.0893 53.3272 38.6917L53.3121 38.6771L53.2976 38.6619C52.9033 38.249 52.5899 37.772 52.3554 37.2401L52.3502 37.2281L52.3452 37.216C52.1127 36.6536 52 36.0584 52 35.441V20.1616ZM64.9069 37.9738C65.2187 37.6827 65.4728 37.345 65.6692 36.9607C65.7362 36.8295 65.7938 36.6956 65.842 36.559C65.9349 36.2954 65.9928 36.0217 66.0156 35.738V37.8821C66.0156 38.4344 66.4634 38.8821 67.0156 38.8821H68.4286C68.9809 38.8821 69.4286 38.4344 69.4286 37.8821V21.2795C69.4286 20.7272 68.9809 20.2795 68.4286 20.2795H67.0156C66.4634 20.2795 66.0156 20.7272 66.0156 21.2795V34.441C66.0156 34.9933 65.5679 35.441 65.0156 35.441H57.5044C56.9521 35.441 56.5044 34.9933 56.5044 34.441V21.2795C56.5044 20.7272 56.0567 20.2795 55.5044 20.2795H54.1088C53.5565 20.2795 53.1088 20.7272 53.1088 21.2795V35.441C53.1088 35.9185 53.1954 36.3668 53.3686 36.786C53.5534 37.2052 53.796 37.5721 54.0963 37.8865C54.4081 38.1892 54.7719 38.4338 55.1877 38.6201C55.6035 38.7948 56.0424 38.8821 56.5044 38.8821H62.62C63.0589 38.8821 63.4747 38.8006 63.8674 38.6376C64.2601 38.4745 64.6066 38.2533 64.9069 37.9738ZM78.5067 23.5633C78.5238 23.2271 78.5852 22.9069 78.6909 22.6026C78.728 22.4959 78.7706 22.391 78.8186 22.2882C79.0034 21.8806 79.2459 21.5313 79.5462 21.2402C79.5691 21.218 79.5922 21.1962 79.6155 21.1747C79.9108 20.9037 80.2457 20.6926 80.6203 20.5415C81.0246 20.3668 81.4577 20.2795 81.9197 20.2795H88.018C88.4915 20.2795 88.9362 20.3726 89.352 20.559C89.7677 20.7336 90.1258 20.9782 90.4261 21.2926C90.7379 21.5953 90.9805 21.9563 91.1537 22.3755C91.3385 22.7948 91.4309 23.2431 91.4309 23.7205V35.441C91.4309 35.9185 91.3385 36.3668 91.1537 36.786C90.9805 37.2052 90.7379 37.5721 90.4261 37.8865C90.1258 38.1892 89.7677 38.4338 89.352 38.6201C88.9362 38.7948 88.4915 38.8821 88.018 38.8821H78.5067C78.0447 38.8821 77.6058 38.7948 77.19 38.6201C76.7743 38.4338 76.4104 38.1892 76.0986 37.8865C75.7983 37.5721 75.5558 37.2052 75.371 36.786C75.1977 36.3668 75.1111 35.9185 75.1111 35.441V14.1179C75.1111 13.5656 75.5588 13.1179 76.1111 13.1179H77.5067C78.059 13.1179 78.5067 13.5656 78.5067 14.1179V23.5633ZM78.7777 20.4344C79.0333 20.1863 79.3131 19.9729 79.6155 19.7951V13C79.6155 12.4477 79.1678 12 78.6155 12H75.0023C74.45 12 74.0023 12.4477 74.0023 13V35.441C74.0023 36.0584 74.1151 36.6536 74.3475 37.216L74.3525 37.2281L74.3577 37.2401C74.5923 37.772 74.9056 38.249 75.2999 38.6619L75.3144 38.6771L75.3295 38.6917C75.739 39.0893 76.2121 39.4052 76.7397 39.6416L76.7516 39.647L76.7636 39.652C77.318 39.8849 77.9022 40 78.5067 40H88.018C88.6303 40 89.2206 39.8863 89.7784 39.652L89.7904 39.647L89.8023 39.6416C90.3335 39.4036 90.8069 39.0835 91.2101 38.6769C91.6236 38.2601 91.9448 37.7742 92.1722 37.228C92.419 36.6635 92.5397 36.0639 92.5397 35.441V23.7205C92.5397 23.0976 92.419 22.4981 92.1722 21.9336C91.946 21.3904 91.6255 20.9092 91.2103 20.502C90.8064 20.0833 90.3292 19.7602 89.7903 19.5321C89.2305 19.2832 88.6358 19.1616 88.018 19.1616H81.9197C81.3198 19.1616 80.7416 19.2749 80.1961 19.5086C79.9944 19.5906 79.8007 19.6862 79.6155 19.7951M79.5067 35.441C78.9544 35.441 78.5067 34.9933 78.5067 34.441V24.7205C78.5067 24.1682 78.9544 23.7205 79.5067 23.7205H87.018C87.5702 23.7205 88.018 24.1682 88.018 24.7205V34.441C88.018 34.9933 87.5702 35.441 87.018 35.441H79.5067ZM85.9092 34.3231C86.4615 34.3231 86.9092 33.8754 86.9092 33.3231V25.8384C86.9092 25.2861 86.4615 24.8384 85.9092 24.8384H80.6155C80.0632 24.8384 79.6155 25.2861 79.6155 25.8384V33.3231C79.6155 33.8754 80.0632 34.3231 80.6155 34.3231H85.9092ZM100.808 19.1616C101.361 19.1616 101.808 19.6093 101.808 20.1616V39C101.808 39.5523 101.361 40 100.808 40H97.1779C96.6256 40 96.1779 39.5523 96.1779 39V20.1616C96.1779 19.6093 96.6256 19.1616 97.1779 19.1616H100.808ZM96.0046 13C96.0046 12.4477 96.4523 12 97.0046 12H100.982C101.534 12 101.982 12.4477 101.982 13V16.8166C101.982 17.3689 101.534 17.8166 100.982 17.8166H97.0046C96.4523 17.8166 96.0046 17.3689 96.0046 16.8166V13ZM110.077 12C110.629 12 111.077 12.4477 111.077 13V39C111.077 39.5523 110.629 40 110.077 40H106.464C105.912 40 105.464 39.5523 105.464 39V13C105.464 12.4477 105.912 12 106.464 12H110.077ZM133.079 39C133.079 39.5523 132.632 40 132.079 40H128.449C127.897 40 127.449 39.5523 127.449 39V25.8384C127.449 25.2861 127.001 24.8384 126.449 24.8384H121.155C120.603 24.8384 120.155 25.2861 120.155 25.8384V39C120.155 39.5523 119.707 40 119.155 40H115.542C114.99 40 114.542 39.5523 114.542 39V20.1616C114.542 19.6093 114.99 19.1616 115.542 19.1616H119.831C119.992 19.1616 120.107 19.3175 120.059 19.4711C119.994 19.6793 120.206 19.8366 120.387 19.7151C120.523 19.6236 120.653 19.5424 120.736 19.5086C121.281 19.2749 121.86 19.1616 122.459 19.1616H128.558C129.175 19.1616 129.77 19.2832 130.33 19.5321C130.869 19.7602 131.346 20.0833 131.75 20.502C132.165 20.9093 132.486 21.3905 132.712 21.9338C132.959 22.4982 133.079 23.0977 133.079 23.7205V39ZM130.966 21.2926C130.665 20.9782 130.307 20.7336 129.892 20.559C129.476 20.3726 129.031 20.2795 128.558 20.2795H122.459C121.997 20.2795 121.564 20.3668 121.16 20.5415C120.785 20.6926 120.45 20.9037 120.155 21.1747C120.132 21.1962 120.109 21.218 120.086 21.2402C119.786 21.5313 119.543 21.8806 119.358 22.2882C119.31 22.391 119.268 22.4959 119.231 22.6026C119.125 22.9069 119.064 23.2271 119.046 23.5633V21.2795C119.046 20.7272 118.599 20.2795 118.046 20.2795H116.651C116.098 20.2795 115.651 20.7272 115.651 21.2795V37.8821C115.651 38.4344 116.098 38.8821 116.651 38.8821H118.046C118.599 38.8821 119.046 38.4344 119.046 37.8821V24.7205C119.046 24.1682 119.494 23.7205 120.046 23.7205H127.558C128.11 23.7205 128.558 24.1682 128.558 24.7205V37.8821C128.558 38.4344 129.005 38.8821 129.558 38.8821H130.971C131.523 38.8821 131.971 38.4344 131.971 37.8821V23.7205C131.971 23.2431 131.878 22.7948 131.693 22.3755C131.52 21.9563 131.278 21.5953 130.966 21.2926ZM141.348 19.1616C141.9 19.1616 142.348 19.6093 142.348 20.1616V39C142.348 39.5523 141.9 40 141.348 40H137.718C137.165 40 136.718 39.5523 136.718 39V20.1616C136.718 19.6093 137.165 19.1616 137.718 19.1616H141.348ZM136.544 13C136.544 12.4477 136.992 12 137.544 12H141.521C142.074 12 142.521 12.4477 142.521 13V16.8166C142.521 17.3689 142.074 17.8166 141.521 17.8166H137.544C136.992 17.8166 136.544 17.3689 136.544 16.8166V13ZM159.27 40C159.022 40 158.783 39.9081 158.599 39.7422L153.287 34.9448C152.644 34.364 151.617 34.8204 151.617 35.687V39C151.617 39.5523 151.169 40 150.617 40H147.004C146.451 40 146.004 39.5523 146.004 39V13C146.004 12.4477 146.451 12 147.004 12H150.617C151.169 12 151.617 12.4477 151.617 13V22.8502C151.617 23.7177 152.646 24.1737 153.288 23.591L157.887 19.4208C158.071 19.254 158.311 19.1616 158.559 19.1616H163.697C164.612 19.1616 165.047 20.2884 164.369 20.9027L155.964 28.5168C155.526 28.9137 155.526 29.6019 155.964 29.9988L165.079 38.259C165.757 38.8733 165.322 40 164.407 40H159.27ZM162.187 37.1411C162.865 37.7554 162.43 38.8821 161.515 38.8821H159.694C159.446 38.8821 159.207 38.7902 159.023 38.6243L152.178 32.4428C151.535 31.862 150.508 32.3184 150.508 33.1849V37.8821C150.508 38.4344 150.06 38.8821 149.508 38.8821H148.112C147.56 38.8821 147.112 38.4344 147.112 37.8821V14.1179C147.112 13.5656 147.56 13.1179 148.112 13.1179H149.508C150.06 13.1179 150.508 13.5656 150.508 14.1179V25.3591C150.508 26.2266 151.537 26.6826 152.18 26.0999L158.313 20.5387C158.497 20.3719 158.736 20.2795 158.984 20.2795H160.804C161.719 20.2795 162.154 21.4063 161.476 22.0206L154.306 28.5167C153.868 28.9136 153.868 29.6018 154.306 29.9987L162.187 37.1411ZM100.7 21.2795C100.7 20.7272 100.252 20.2795 99.6996 20.2795H98.2866C97.7344 20.2795 97.2866 20.7272 97.2866 21.2795V37.8821C97.2866 38.4344 97.7344 38.8821 98.2866 38.8821H99.6996C100.252 38.8821 100.7 38.4344 100.7 37.8821V21.2795ZM98.1134 13.1179C97.5611 13.1179 97.1134 13.5656 97.1134 14.1179V15.6987C97.1134 16.251 97.5611 16.6987 98.1134 16.6987H99.8729C100.425 16.6987 100.873 16.251 100.873 15.6987V14.1179C100.873 13.5656 100.425 13.1179 99.8729 13.1179H98.1134ZM109.968 14.1179C109.968 13.5656 109.521 13.1179 108.968 13.1179H107.573C107.02 13.1179 106.573 13.5656 106.573 14.1179V37.8821C106.573 38.4344 107.02 38.8821 107.573 38.8821H108.968C109.521 38.8821 109.968 38.4344 109.968 37.8821V14.1179ZM141.239 21.2795C141.239 20.7272 140.792 20.2795 140.239 20.2795H138.826C138.274 20.2795 137.826 20.7272 137.826 21.2795V37.8821C137.826 38.4344 138.274 38.8821 138.826 38.8821H140.239C140.792 38.8821 141.239 38.4344 141.239 37.8821V21.2795ZM138.653 13.1179C138.101 13.1179 137.653 13.5656 137.653 14.1179V15.6987C137.653 16.251 138.101 16.6987 138.653 16.6987H140.413C140.965 16.6987 141.413 16.251 141.413 15.6987V14.1179C141.413 13.5656 140.965 13.1179 140.413 13.1179H138.653Z" fill="white"/>
</svg>
