<svg width="31" height="31" viewBox="0 0 31 31" fill="none" xmlns="http://www.w3.org/2000/svg">
<path fill-rule="evenodd" clip-rule="evenodd" d="M16.4569 23.7711L19.9423 20.2857C20.2849 19.9431 20.824 19.8954 21.2215 20.1726L26.2938 23.7103C26.8044 24.0664 26.869 24.7975 26.4289 25.2376L25.352 26.3145C24.6418 27.0247 23.6243 27.3319 22.6631 27.0403C20.1226 26.2695 14.9321 24.2852 10.6715 20.0245C6.41077 15.7638 4.42644 10.5733 3.65566 8.03279C3.36404 7.07159 3.67121 6.05415 4.38147 5.34389L5.4583 4.26706C5.89847 3.82689 6.62952 3.89153 6.98562 4.40212L10.5233 9.47448C10.8005 9.87195 10.7529 10.411 10.4102 10.7536L6.92482 14.239" fill="#161616"/>
<path d="M16.4569 23.7711L19.9423 20.2857C20.2849 19.9431 20.824 19.8954 21.2215 20.1726L26.2938 23.7103C26.8044 24.0664 26.869 24.7975 26.4289 25.2376L25.352 26.3145C24.6418 27.0247 23.6243 27.3319 22.6631 27.0403C20.1226 26.2695 14.9321 24.2852 10.6715 20.0245C6.41077 15.7638 4.42644 10.5733 3.65566 8.03279C3.36404 7.07159 3.67121 6.05415 4.38147 5.34389L5.4583 4.26706C5.89847 3.82689 6.62952 3.89153 6.98562 4.40212L10.5233 9.47448C10.8005 9.87195 10.7529 10.411 10.4102 10.7536L6.92482 14.239" stroke="#161616" stroke-linecap="round"/>
</svg>
