<svg width="18" height="18" viewBox="0 0 18 18" fill="none" xmlns="http://www.w3.org/2000/svg">
<g clip-path="url(#clip0_762_2892)">
<path fill-rule="evenodd" clip-rule="evenodd" d="M14.5492 3.08387C15.3069 2.76377 16.1192 3.40662 15.9854 4.22051L14.4051 13.8337C14.2528 14.7606 13.2381 15.2924 12.3905 14.8305C11.6813 14.444 10.629 13.8491 9.68066 13.2274C9.20711 12.9169 7.75707 11.9214 7.9353 11.2128C8.0877 10.6069 10.5254 8.33023 11.9184 6.9763C12.4655 6.44447 12.2163 6.13723 11.5701 6.6269C9.96706 7.84163 7.39337 9.68849 6.54228 10.2083C5.79136 10.6668 5.39929 10.7451 4.93163 10.6668C4.07763 10.524 3.28587 10.3029 2.63946 10.0341C1.7658 9.67074 1.80835 8.46615 2.63887 8.11535L14.5492 3.08387Z" fill="white"/>
</g>
<defs>
<clipPath id="clip0_762_2892">
<rect width="18" height="18" fill="white"/>
</clipPath>
</defs>
</svg>
