<svg width="31" height="31" viewBox="0 0 31 31" fill="none" xmlns="http://www.w3.org/2000/svg">
<path d="M29.3712 28.397L14.4792 21.9434C13.9913 21.732 13.754 21.1757 13.9391 20.6774L15.0455 17.6983C15.2478 17.1537 15.8702 16.8957 16.3986 17.1375L30.1963 23.4491C30.5535 23.6126 30.7821 23.9699 30.7806 24.3627L30.7686 27.4837C30.7658 28.2015 30.03 28.6824 29.3712 28.397Z" fill="white"/>
<path d="M10.4366 2.85929C11.0372 1.52307 12.1706 2.03326 13.4194 2.47867C19.1118 4.50054 24.7525 6.56426 30.3415 8.66981C30.4346 8.70551 30.5146 8.7697 30.5708 8.85371C30.627 8.93772 30.6566 9.03749 30.6557 9.13951L30.6119 15.1484C30.6108 15.2158 30.5896 15.281 30.5512 15.3354C30.5128 15.3897 30.459 15.4305 30.3972 15.4521C24.9248 17.4079 19.4753 19.6705 13.9195 21.2334C13.8331 21.2573 13.7033 21.2536 13.6385 21.1815C13.6163 21.1568 13.6012 21.1264 13.5949 21.0936C13.5886 21.0607 13.5912 21.0268 13.6026 20.9954L15.5103 15.7671C15.5326 15.7042 15.5687 15.6476 15.6157 15.6019C15.6627 15.5562 15.7192 15.5226 15.7807 15.5039C18.5222 14.6752 21.0781 13.7425 23.862 12.7302C24.0561 12.6718 25.6516 11.9204 25.6516 11.9204C25.6516 11.9204 24.2515 11.384 24.0608 11.313C19.6861 9.89583 17.8965 9.28846 13.9195 8.07372C13.7561 8.03295 13.7557 8.08263 13.6054 8.16062C13.4551 8.23861 13.3369 8.36897 13.2722 8.52809L5.62445 27.5307C5.52331 27.7841 5.36895 28.117 5.08417 28.0986C4.57355 28.117 2.7839 28.117 1.5908 28.117C0.59655 28.117 0.19885 28.117 0 27.9145C0 27.9145 2.81567 21.4359 2.87635 21.2991C5.84319 14.6099 8.12599 7.99361 10.4366 2.85929Z" fill="white"/>
</svg>
