<svg width="31" height="31" viewBox="0 0 31 31" fill="none" xmlns="http://www.w3.org/2000/svg">
<path fill-rule="evenodd" clip-rule="evenodd" d="M18.2709 23.1713L21.7563 19.6859C22.0989 19.3432 22.6379 19.2955 23.0354 19.5728L28.1078 23.1105C28.6184 23.4666 28.683 24.1976 28.2428 24.6378L27.166 25.7146C26.4557 26.4249 25.4383 26.732 24.4771 26.4404C21.9366 25.6696 16.7461 23.6853 12.4854 19.4246C8.22473 15.1639 6.2404 9.97344 5.46963 7.43293C5.17801 6.47174 5.48517 5.4543 6.19544 4.74404L7.27226 3.66721C7.71243 3.22704 8.44348 3.29168 8.79958 3.80226L12.3373 8.87463C12.6145 9.2721 12.5668 9.81113 12.2242 10.1538L8.73878 13.6392" fill="#2F20DC"/>
</svg>
