<svg width="18" height="18" viewBox="0 0 18 18" fill="none" xmlns="http://www.w3.org/2000/svg">
<path fill-rule="evenodd" clip-rule="evenodd" d="M11.6393 2.84216H6.36108C4.4177 2.84216 2.84229 4.41758 2.84229 6.36096V11.6392C2.84229 13.5825 4.4177 15.158 6.36108 15.158H11.6393C13.5826 15.158 15.1581 13.5825 15.1581 11.6392V6.36096C15.1581 4.41758 13.5826 2.84216 11.6393 2.84216Z" stroke="#212121" stroke-width="2" stroke-linecap="round" stroke-linejoin="round"/>
<path fill-rule="evenodd" clip-rule="evenodd" d="M8.99977 11.3684C7.69169 11.3684 6.63135 10.3081 6.63135 9.00001C6.63135 7.69193 7.69169 6.63159 8.99977 6.63159C10.3078 6.63159 11.3682 7.69193 11.3682 9.00001C11.3682 9.62812 11.1186 10.2306 10.6745 10.6747C10.2303 11.1189 9.62787 11.3684 8.99977 11.3684Z" stroke="#212121" stroke-width="2" stroke-linecap="round" stroke-linejoin="round"/>
<path d="M12.5 5C12.2239 5 12 5.22386 12 5.5C12 5.77614 12.2239 6 12.5 6C12.7761 6 13 5.77614 13 5.5C13 5.22386 12.7761 5 12.5 5Z" fill="#212121"/>
</svg>
